<?xml version="1.0" standalone="no"?>
<!DOCTYPE svg PUBLIC "-//W3C//DTD SVG 20010904//EN"
 "http://www.w3.org/TR/2001/REC-SVG-20010904/DTD/svg10.dtd">
<svg version="1.0" xmlns="http://www.w3.org/2000/svg"
 width="512.000000pt" height="512.000000pt" viewBox="0 0 512.000000 512.000000"
 preserveAspectRatio="xMidYMid meet">
<metadata>
Created by potrace 1.11, written by Peter Selinger 2001-2013
</metadata>
<g transform="translate(0.000000,512.000000) scale(0.100000,-0.100000)"
fill="#000000" stroke="none">
<path d="M2995 4936 c-36 -12 -1792 -657 -2254 -829 -218 -80 -268 -108 -308
-168 -37 -56 -43 -153 -15 -254 24 -87 1197 -3356 1223 -3407 53 -105 118
-139 223 -118 59 12 406 136 456 164 14 7 39 16 56 19 18 3 484 130 1035 282
722 199 1020 285 1062 308 161 85 257 259 244 442 -5 83 -852 3157 -893 3241
-49 103 -143 184 -259 224 -72 25 -91 21 -43 -8 50 -31 112 -101 142 -159 30
-60 1004 -3105 1018 -3185 30 -169 -73 -373 -232 -457 -54 -29 -1848 -616
-1857 -608 -1 2 392 149 874 327 483 177 904 336 937 352 82 41 150 113 193
203 30 64 36 89 41 165 3 53 0 108 -7 136 -23 89 -1072 3039 -1107 3111 -41
86 -110 152 -204 197 -59 28 -76 31 -175 33 -72 2 -124 -2 -150 -11z m240
-1276 c48 -138 86 -252 84 -254 -2 -2 -164 -63 -359 -136 -195 -73 -479 -179
-629 -236 -151 -57 -276 -102 -277 -101 -4 4 -166 472 -171 492 -4 18 57 42
624 251 345 128 631 232 634 233 3 0 46 -112 94 -249z"/>
</g>
</svg>
